<?xml version="1.0" encoding="UTF-8"?>
<svg width="120px" height="120px" viewBox="0 0 120 120" version="1.1" xmlns="http://www.w3.org/2000/svg" xmlns:xlink="http://www.w3.org/1999/xlink">
    <!-- Generator: Sketch 58 (84663) - https://sketch.com -->
    <title>Icon / blockchain</title>
    <desc>Created with Sketch.</desc>
    <defs>
        <polygon id="path-1" points="0.514630508 0.595083517 47.6362576 0.595083517 47.6362576 52.3643572 0.514630508 52.3643572"></polygon>
    </defs>
    <g id="Icon-/-blockchain" stroke="none" stroke-width="1" fill="none" fill-rule="evenodd">
        <g id="Group-26" transform="translate(5.000000, 6.000000)">
            <path d="M101.81607,29.2593395 L87.7094943,35.1172773 L73.5991605,29.039526 L87.7057366,23.1815883 L101.81607,29.2593395 Z M110.08311,27.5834959 L109.521327,27.149505 C109.442415,27.1100513 109.342834,27.0612038 109.021547,26.8545415 L88.5343194,18.2047836 C88.348311,18.1127249 88.0270238,18 87.5648211,18 C87.2153508,18 86.843334,18.0638774 86.4356186,18.1972686 L65.903298,27.1175663 L65.6026784,27.1175663 L65.2494503,27.4388323 C65.1855687,27.4951947 64.4340196,28.2429366 64.3926844,28.2936628 L64.2780732,28.4721439 L64.2085549,28.6431101 C64.1897661,28.7069875 64.1578253,28.7652287 64.0807915,28.9192861 L64,29.0808584 L64,58.8496279 C64,60.0200882 64.6482111,60.9688561 65.5688587,61.1999422 L69.3284829,62.7818484 C69.6591645,62.9096033 70.0029982,62.9753595 70.3543474,62.9753595 C71.4177893,62.9753595 72.3440736,62.3797962 72.7085749,61.4592095 C72.9753748,60.7941325 72.9678593,60.0031794 72.6785129,59.3456175 C72.4286228,58.7688417 71.9645413,58.3029121 71.5436738,58.1695209 L69.6723166,56.8506395 L69.6723166,32.9510803 L86.5934439,40.3045018 L86.7606636,40.4134692 L86.9184889,40.4792254 C87.153348,40.5656478 87.3863282,40.5825565 87.8222267,40.5881928 L88.1754547,40.593829 L88.2806716,40.5543753 L88.4629222,40.6370402 L88.6169898,40.4867404 L88.7485109,40.3289255 L105.742914,32.9510803 L105.742914,56.8074283 L87.7151309,64.4708433 L85.8775934,63.6160127 C85.5487907,63.4882578 85.2030782,63.4225016 84.8536078,63.4225016 C83.7920448,63.4225016 82.8676394,64.0180649 82.4975015,64.9424091 C82.0221467,66.1241419 82.3922846,67.7548956 83.7958025,68.3185201 L86.5953228,69.6618253 L86.7625425,69.7689139 L86.9184889,69.8365489 C87.1552269,69.9229713 87.3882071,69.9380013 87.8241055,69.9455163 L88.1773336,69.9492738 L88.2825505,69.9098201 L88.4760744,70 L88.628263,69.8421851 L88.7541475,69.6824915 L109.406716,60.7321338 C110.434459,60.2192355 110.954907,59.4320399 110.954907,58.3893345 L111,28.4928102 L110.08311,27.5834959 Z" id="Fill-1" fill="#BCE4ED"></path>
            <g id="Group-5" transform="translate(13.000000, 58.000000)">
                <mask id="mask-2" fill="white">
                    <use xlink:href="#path-1"></use>
                </mask>
                <g id="Clip-4"></g>
                <path d="M5.88303729,15.4777819 L22.9810712,22.7994411 L23.1405288,22.9004295 L23.2904949,22.9640148 C23.5372746,23.0575226 23.7859525,23.0762242 24.2206644,23.0799645 L24.5775458,23.0855749 L24.6800542,23.0481718 L24.877478,23.1398095 L25.0350373,22.9808462 L25.1622237,22.821883 L42.3285966,15.4759117 L42.3285966,39.2268881 L25.568461,46.2437119 C25.1033763,46.4382081 24.6098169,46.5373264 24.1048678,46.5373264 C23.5980203,46.5373264 23.1063593,46.4382081 22.6412746,46.2437119 L5.88303729,39.2268881 L5.88303729,15.4777819 Z M24.1048678,17.6340713 L9.83910508,11.5803776 L24.1048678,5.52294356 L38.3706305,11.5803776 L24.1048678,17.6340713 Z M46.7155797,10.1384876 L46.1309017,9.69526074 C46.0511729,9.65785763 45.9505627,9.60549327 45.6392407,9.40912693 L24.9040542,0.785839389 C24.5111051,0.654928496 24.1940881,0.595083517 23.8751729,0.595083517 C23.5600542,0.595083517 23.2430373,0.653058341 22.8254102,0.791449856 L2.07124068,9.44278973 L1.76371525,9.44278973 L1.40113898,9.77193712 C1.33849492,9.82804179 0.514630508,10.6378192 0.514630508,10.6378192 L0.600054237,11.2418794 C0.619037288,11.3802709 0.617138983,11.5037012 0.617138983,11.5803776 L0.617138983,41.0297181 C0.617138983,42.1723831 1.28534237,43.1411238 2.19842712,43.3692827 L23.1728,52.2992758 L24.5813424,52.3048863 L24.6743593,52.2693533 L24.8717831,52.3647313 L25.0293424,52.205768 L25.1584271,52.0430645 L46.0245966,43.1336431 C47.0648678,42.6230907 47.5944949,41.8394955 47.5944949,40.8015591 L47.6362576,11.0361623 L46.7155797,10.1384876 Z" id="Fill-3" fill="#BCE4ED" mask="url(#mask-2)"></path>
            </g>
            <path d="M37.5407143,11.5440741 L24.9774234,16.6836611 C24.4714177,16.8919976 23.9389788,16.9961658 23.3933234,16.9961658 C22.8287872,16.9961658 22.2812437,16.884557 21.7601334,16.6631995 L9.18362592,11.3264369 L23.359338,5.52649761 L37.5407143,11.5440741 Z M46.0786165,9.88482272 L45.5103041,9.45512869 C45.4291166,9.4160656 45.3309364,9.36770177 45.0137388,9.16494571 L24.456313,0.392491079 C24.0447114,0.120909574 23.7067449,0 23.361226,0 C23.0157072,0 22.660748,0.128350163 22.3964167,0.331106218 L1.68228016,8.96963025 L1.3801872,8.96963025 L1.02333989,9.28585529 C0.955368979,9.34724015 0.664604507,9.63370283 0.621178645,9.68392681 L0.507893785,9.85878065 L0.441810951,10.0243338 C0.428594384,10.0596766 0.390832764,10.128502 0.19069618,10.4224053 C0.0151046479,10.8093159 0,11.0697365 0,11.3227166 L0,40.614456 C0,41.7528661 0.666492588,42.7145623 1.57088338,42.9433604 L15.061222,48.7395794 C15.5068091,48.9590768 15.7692524,49 16.1223235,49 C17.298598,49 18.253967,48.3582492 18.488089,47.4430567 C18.9638854,46.2693038 18.5919335,44.6546959 17.1758727,44.0966517 L5.23753666,38.8231342 L5.23753666,15.2011237 L22.2397059,22.4817402 L22.4152975,22.5914889 L22.5776724,22.656594 C22.8136826,22.7403007 23.0440284,22.757042 23.4745109,22.7626224 L23.8275821,22.7663427 L23.9257623,22.7309999 L24.1202346,22.8240073 L24.2807215,22.6658948 L24.4109991,22.504062 L41.4868035,15.1992635 L41.4868035,38.8175537 L31.938778,42.7517652 C30.5548146,43.2967884 30.1337725,44.9262774 30.611457,46.1037507 C30.9815209,47.017083 31.9123448,47.6067497 32.9809987,47.6067497 C33.3359579,47.6067497 33.6852529,47.5416445 34.0213313,47.4095741 L45.3951312,42.7071217 C46.4297995,42.1993015 46.9546861,41.4198998 46.9546861,40.3856579 L47,10.785134 L46.0786165,9.88482272 Z" id="Fill-6" fill="#BCE4ED"></path>
            <path d="M91.2125157,51.0348042 C90.5706872,50.378496 89.7361284,50 88.92157,50 C88.2033767,50 87.550639,50.2796768 87.0379035,50.8073337 C85.8706122,52.0043505 85.6487904,53.8091983 86.5724415,55.0696085 L86.7069892,55.1852082 C87.4979109,55.7259167 88.3106511,56 89.1270278,56 C89.697946,56 90.5852329,55.7352393 90.9106927,55.38844 C91.5288843,54.9111249 91.9325272,54.1149782 91.9925281,53.2573027 C92.0507109,52.4108142 91.76707,51.5997514 91.2125157,51.0348042" id="Fill-8" fill="#BCE4ED"></path>
            <path d="M82.9763369,55 C82.2287465,55 81.5286802,55.2778987 81.0936521,55.7348461 C80.4721833,56.2123096 80.0664008,57.0087038 80.0079096,57.8666459 C79.9475906,58.7133976 80.2345629,59.5247125 80.7902291,60.0898353 C81.3550345,60.6680137 82.2031566,61 83.1115977,61 C83.6891981,61 84.5793607,60.7370221 84.9047179,60.390115 C85.5261866,59.9145166 85.9319692,59.1181225 85.9922882,58.2601803 C86.0507794,57.420889 85.7729463,56.607709 85.2812548,56.119055 C84.7731127,55.427106 83.8902615,55 82.9763369,55" id="Fill-10" fill="#BCE4ED"></path>
            <path d="M80.2660235,61.188282 C79.6516541,60.4229478 78.8105531,60 77.8981414,60 C77.2453739,60 76.6035773,60.225206 76.0111497,60.6792798 C75.3583822,61.3329265 75,62.149527 75,62.9807751 C75,63.7003357 75.2797575,64.3759536 75.7880751,64.8849558 C76.1208585,65.2200183 77.0204708,66 78.1102452,66 C78.7465563,66 79.3133853,65.710711 79.9058129,65.4031126 C80.5293247,64.9343912 80.9334189,64.1525786 80.9919303,63.3085139 C81.0522701,62.4900824 80.7706841,61.6881294 80.2660235,61.188282" id="Fill-12" fill="#BCE4ED"></path>
            <path d="M66.0236963,69 C65.2545237,69 64.544804,69.2749326 64.0283064,69.7762803 C63.4151978,70.3710692 63.0510485,71.1114106 63.0046009,71.8697215 C62.9600111,72.638814 63.2405548,73.3629829 63.801642,73.9038634 C64.1416386,74.2327044 65.0538699,75 66.1611813,75 C66.7965847,75 67.3465246,74.7358491 68.0692496,74.3423181 C69.1877083,73.2587601 69.3121879,71.5929919 68.3665144,70.0781671 C67.8500168,69.4115004 66.9526487,69 66.0236963,69" id="Fill-14" fill="#BCE4ED"></path>
            <path d="M74.242183,64.9973046 C73.5968133,64.3647799 72.7618434,64 71.9432813,64 C71.2304576,64 70.5759725,64.262354 70.1366106,64.7079964 C69.5532256,65.1410602 69.1503253,65.8490566 69.0336483,66.6540881 C68.9151482,67.475292 69.1102175,68.2641509 69.609741,68.9056604 C69.9451874,69.2345013 70.8384958,70 71.9250505,70 C72.4974971,70 73.3889824,69.7430368 73.7335442,69.3998203 C74.4372524,68.8427673 74.8820835,68.1042228 74.9787067,67.3171608 C75.078976,66.5283019 74.823745,65.7106918 74.242183,64.9973046" id="Fill-16" fill="#BCE4ED"></path>
            <path d="M23.711206,45.8406424 C24.526437,45.564546 25.0535103,45.0457072 25.7082484,44.3230389 C26.0164677,43.6930204 26.0091726,43.1111797 25.9945823,42.2458308 C25.7429002,40.9654107 24.4644284,40 23.0199922,40 C22.8029621,40 22.6023459,40.0222359 22.3397212,40.0833848 C20.6891976,40.6411365 19.7499494,42.1198271 20.0581687,43.6781964 C20.3080269,44.9586164 21.5609659,46 22.854028,46 C23.1622473,46 23.4649953,45.9425571 23.711206,45.8406424" id="Fill-18" fill="#BCE4ED"></path>
            <path d="M29.9945843,56.2111765 C29.7448181,54.9917647 28.4886945,54 27.1961087,54 C26.8807104,54 26.5762509,54.0582353 26.2407984,54.1888235 C24.5999984,54.9864706 23.7631904,56.3647059 24.0585344,57.7888235 C24.3101237,59.0082353 25.5626011,60 26.8551869,60 C27.1632927,60 27.4659291,59.9452941 27.710226,59.8482353 C28.6892367,59.5323529 29.2616936,58.8476471 29.7083558,58.1876471 C30.0164616,57.5894118 30.0091692,57.0335294 29.9945843,56.2111765" id="Fill-20" fill="#BCE4ED"></path>
            <path d="M21.8821633,39.8426349 C22.6833762,39.5846295 23.344517,39.0375114 23.7012342,38.3440073 C24.0168636,37.7236962 24.0093931,37.147301 23.994452,36.2927722 C23.7385868,35.0301921 22.4536578,34 21.1295086,34 C20.8157469,34 20.4982499,34.0585544 20.3488396,34.1335773 C19.5308179,34.2927722 18.7875014,34.8490393 18.3579467,35.6248856 C17.973215,36.3238792 17.8947746,37.1436414 18.1413017,37.7072278 C18.3990345,38.9698079 19.6858311,40 21.0081127,40 C21.3237421,40 21.6319009,39.9432754 21.8821633,39.8426349" id="Fill-22" fill="#BCE4ED"></path>
            <path d="M25.7407124,52.8444173 C26.5523932,52.5680293 27.0905142,52.0353874 27.7096232,51.3471629 C28.0155783,50.7266626 28.0101791,50.1500915 27.9939815,49.295302 C27.7456179,48.028676 26.5073998,47 25.233187,47 C24.9272319,47 24.6248763,47.0567419 24.5006946,47.1281269 C23.5792299,47.28554 22.8017441,47.7943868 22.3698076,48.5247102 C21.9774652,49.1909701 21.8946773,50.0018304 22.1340422,50.7083588 C22.3824057,51.971324 23.6206238,53 24.8966364,53 C25.198992,53 25.4941486,52.9432581 25.7407124,52.8444173" id="Fill-24" fill="#BCE4ED"></path>
        </g>
    </g>
</svg>