<?xml version="1.0" encoding="UTF-8"?>
<svg width="120px" height="120px" viewBox="0 0 120 120" version="1.1" xmlns="http://www.w3.org/2000/svg" xmlns:xlink="http://www.w3.org/1999/xlink">
    <!-- Generator: Sketch 58 (84663) - https://sketch.com -->
    <title>Icon / canna</title>
    <desc>Created with Sketch.</desc>
    <g id="Icon-/-canna" stroke="none" stroke-width="1" fill="none" fill-rule="evenodd">
        <path d="M68.6755815,99.4745055 C69.169613,99.8605909 69.642129,100.270703 70.1088523,100.689929 C70.3140782,100.873858 70.4837205,101.096727 70.6591555,101.314625 C70.8577611,101.560693 71.047264,101.81753 71.2359394,102.074368 C71.4006166,102.298895 71.5694314,102.520107 71.7167306,102.759546 C71.95754,103.151431 72.1817989,103.559058 72.4110229,103.961713 C72.6063185,104.30803 72.8024416,104.651033 72.9935995,104.999836 C73.0945574,105.18625 73.1822749,105.381779 73.2815777,105.570679 C73.430532,105.8532 73.5943816,106.124123 73.7342331,106.413273 C73.9303562,106.818414 74.1049637,107.239297 74.2994317,107.644438 C74.396252,107.847423 74.5319658,108.018924 74.625476,108.224395 C74.8042211,108.625393 74.9680708,109.037163 75.1360581,109.446446 C75.20557,109.613805 75.2725994,109.785307 75.3479041,109.974207 C75.2825297,109.988292 75.2510838,110.004033 75.2279132,110 C74.905179,109.931124 74.5766521,109.8723 74.2621932,109.786964 C73.6183798,109.613805 72.975394,109.434847 72.343166,109.239319 C71.7970004,109.071132 71.2673853,108.874775 70.7261849,108.699959 C70.5118563,108.628707 70.2793222,108.593082 70.0658211,108.52183 C69.7397768,108.413295 69.4236628,108.286533 69.1025836,108.164742 C68.7434384,108.029695 68.3801555,107.90459 68.028458,107.758772 C67.7355147,107.636982 67.4599493,107.488678 67.1752812,107.358602 C66.8997159,107.233497 66.6067725,107.134076 66.3452751,106.989087 C65.9621316,106.778646 65.5889185,106.552463 65.2289457,106.309709 C64.4767268,105.802661 63.8039501,105.203649 63.2288213,104.495273 C63.0269055,104.247549 62.8357476,103.994025 62.6462447,103.73553 C62.4451564,103.463779 62.2424131,103.194513 62.0595304,102.906192 C61.884923,102.631127 61.7343137,102.332863 61.5754291,102.0404 C61.2899335,101.510153 60.9994727,100.982393 60.7263899,100.441376 C60.500476,99.997295 60.3010428,99.5300156 60.0825766,99.0809635 C60.0006518,98.909462 59.8078388,98.5921428 59.8078388,98.5921428 L58.8843225,98.5921428 C58.8843225,98.5921428 58.692337,98.909462 58.6095846,99.0809635 C58.3911184,99.5300156 58.1916852,99.997295 57.9665988,100.441376 C57.693516,100.982393 57.4022277,101.510153 57.115077,102.0404 C56.9586751,102.332863 56.8072383,102.631127 56.6318033,102.906192 C56.4505756,103.194513 56.2461773,103.463779 56.0459166,103.73553 C55.8564137,103.994025 55.6644282,104.247549 55.46334,104.495273 C54.8882111,105.203649 54.2162619,105.802661 53.4632155,106.309709 C53.1040702,106.552463 52.7308571,106.778646 52.3468862,106.989087 C52.0837337,107.134076 51.7924454,107.233497 51.5177075,107.358602 C51.2305569,107.488678 50.9566466,107.636982 50.6645307,107.758772 C50.3128332,107.90459 49.9487228,108.029695 49.5895776,108.164742 C49.269326,108.286533 48.9523844,108.413295 48.6271677,108.52183 C48.4136666,108.593082 48.1803049,108.628707 47.9659763,108.699959 C47.4247759,108.874775 46.8943333,109.071132 46.3498228,109.239319 C45.7167672,109.434847 45.0746089,109.613805 44.4299681,109.786964 C44.1155091,109.8723 43.7878098,109.931124 43.4642481,110 C43.4419049,110.004033 43.410459,109.988292 43.3450847,109.974207 C43.4203893,109.785307 43.4865912,109.613805 43.5561032,109.446446 C43.724918,109.037163 43.8871126,108.625393 44.0675127,108.224395 C44.1601954,108.018924 44.2950817,107.847423 44.3927295,107.644438 C44.5871976,107.239297 44.761805,106.818414 44.9579281,106.413273 C45.0977796,106.124123 45.2616293,105.8532 45.4105835,105.570679 C45.5098863,105.381779 45.5976038,105.18625 45.6993892,104.999836 C45.8897197,104.651033 46.0850152,104.30803 46.2819658,103.961713 C46.5103624,103.559058 46.7354488,103.151431 46.9762581,102.759546 C47.1219023,102.520107 47.2907171,102.298895 47.4562218,102.074368 C47.6448972,101.81753 47.8352276,101.560693 48.0330057,101.314625 C48.2076132,101.096727 48.3789106,100.873858 48.5841364,100.689929 C49.0483772,100.270703 48.6495108,99.7553702 47.6531724,100.043692 C46.2132814,100.465403 44.7626326,100.84486 43.3136388,101.235917 C42.5183886,101.451329 41.7247935,101.679998 40.919613,101.854813 C40.0813317,102.0346 39.2322925,102.167162 38.3849083,102.303866 C37.583038,102.43477 36.7795126,102.561532 35.9735046,102.665096 C33.6605762,102.962531 31.3377175,103.002299 29.0140313,102.821684 C27.9018396,102.736348 26.7904754,102.6129 25.6840764,102.457968 C24.9293749,102.351091 24.1870862,102.148934 23.4381774,102.003117 C22.6578227,101.849842 21.8691927,101.733851 21.0929756,101.560693 C20.1570464,101.353565 19.2310475,101.107498 18.300911,100.875515 C17.4692498,100.668388 16.6342785,100.479488 15.8092375,100.250819 C15.2705197,100.102516 14.7533174,99.8821322 14.2154271,99.7305149 C12.8574609,99.3444295 11.4870818,99.000598 10.1332533,98.5987709 C8.56509608,98.1348056 7.00355908,97.6352143 5.4461597,97.128995 C4.68649306,96.8829276 3.94172183,96.5846642 3.19198547,96.304628 C3.14067901,96.2864008 3.10426797,96.2267481 3,96.1331265 C3.46258568,95.9624535 3.877175,95.8091793 4.29341936,95.6583905 C5.30713574,95.2979889 6.31588699,94.9235026 7.33787861,94.5887847 C7.86087351,94.4172832 8.41531431,94.3385748 8.94244683,94.177844 C10.001677,93.8497542 11.0468393,93.4810675 12.1060695,93.1571202 C12.8640811,92.9259661 13.6386432,92.743694 14.4024474,92.5332525 C14.9105469,92.3940629 15.4103711,92.2258755 15.9192981,92.0924855 C16.8759154,91.8373045 17.8350152,91.5945512 18.7949426,91.3542835 C19.9170646,91.0701047 21.0375315,90.7776408 22.1646186,90.5208029 C22.8539457,90.3633861 23.5548582,90.2598224 24.2532881,90.1446595 C25.0518484,90.0145835 25.8504086,89.883679 26.653934,89.7784583 C27.3589841,89.6856652 28.0689994,89.5787875 28.7773595,89.5647029 C30.391858,89.532391 32.0088391,89.5216204 33.6216826,89.5663599 C34.4318282,89.5895581 35.2370086,89.75526 36.0454992,89.8538527 C36.427815,89.9002492 36.8167511,89.9159909 37.1957569,89.9872427 C38.7167453,90.2730785 40.2443538,90.5315735 41.7521018,90.8812045 C43.7257455,91.3377133 45.6902865,91.8373045 47.6432421,92.3783213 C49.1046488,92.7826339 50.4849581,91.5854376 49.4323481,91.052706 L46.5442908,89.5431616 C45.4056184,88.9027237 44.2603257,88.2730565 43.110068,87.6558169 C42.2957848,87.2200208 41.4467456,86.8471916 40.6523229,86.3782552 C39.7230139,85.8289533 38.8392188,85.2042571 37.9322529,84.6176724 C36.9731531,83.9946332 35.986745,83.4130195 35.0541259,82.7526974 C34.1885362,82.1396003 33.3709429,81.45608 32.5459019,80.7866442 C31.5983874,80.0219299 30.6161169,79.292013 29.7397695,78.4494188 C28.5481355,77.3044186 27.3896025,76.1130219 26.3146494,74.8586585 C25.090742,73.4311365 23.9578622,71.9257347 22.8158797,70.4286179 C22.1282076,69.5255425 21.4537759,68.6058969 20.8563038,67.6406833 C19.8111415,65.9488668 18.8321811,64.2164534 17.8209473,62.5039242 C17.2267854,61.4997706 16.6169005,60.5063877 16.0326689,59.4964345 C15.7695164,59.0390973 15.5560153,58.5544192 15.3069307,58.0871398 C14.616776,56.7896938 13.9257938,55.4930764 13.2240538,54.20143 C12.8756664,53.5576781 12.4900404,52.9346389 12.1532383,52.2850875 C11.8073335,51.6156517 11.5168727,50.9188752 11.1717954,50.2510965 C10.5139141,48.9793344 9.82872459,47.7249709 9.16918829,46.4548658 C9.00699367,46.1408607 8.89776056,45.7978577 8.7132228,45.344663 C8.9763753,45.427514 9.11870936,45.4482267 9.24118285,45.5111934 C10.2689671,46.0464106 11.2851661,46.604826 12.3203981,47.123473 C13.4673458,47.7001156 14.6407742,48.2278762 15.7844118,48.8103184 C16.5482161,49.1988894 17.2739542,49.6628548 18.0303108,50.0655104 C18.9753427,50.5692442 19.9443728,51.025753 20.8852672,51.5361148 C21.6813448,51.9677683 22.4459766,52.4549319 23.2337791,52.897356 C24.6281563,53.6786405 26.0556345,54.4011008 27.4210484,55.2287819 C29.0537524,56.2205078 30.6467353,57.282657 32.2380632,58.3406637 C33.0813097,58.9007362 33.8980755,59.5030626 34.7024284,60.1169882 C35.8088274,60.9645534 36.9201916,61.8104617 37.9785942,62.7143656 C38.7705343,63.3929149 39.4524137,64.1973977 40.2393887,64.880918 C40.8972699,65.4517611 41.4351602,66.1220253 42.0003588,66.7715768 C42.5936932,67.4542687 43.1646845,68.1560163 43.7298831,68.8627349 C44.3968671,69.6978725 45.0770915,70.5238965 45.6985617,71.3921745 C46.3729934,72.3358469 47.0002563,73.3192877 47.6283467,74.296929 C48.1099654,75.0492157 48.5593107,75.8238721 49.0285166,76.5836153 C49.5068252,77.3582718 50.0049944,78.1221576 50.4684076,78.9067561 C50.8532061,79.5596216 51.1966284,80.2340284 51.5640489,80.8976645 C51.9438822,81.5828419 52.3427486,82.2572487 52.7126516,82.9457401 C53.3150888,84.0700276 53.8869076,85.2075712 54.4951374,86.3285446 L56.7691722,90.6989324 C57.5492511,91.3473792 57.8548831,91.4117268 57.6860683,90.8919751 C57.4626369,90.2067977 57.2938221,89.5058787 57.078666,88.8190443 C56.6764895,87.534026 56.2470048,86.2606068 55.850621,84.9755885 C55.4956134,83.8289313 55.1786719,82.6706749 54.8286294,81.5240177 C54.4322456,80.2232578 54.0085535,78.9316114 53.6138248,77.6308514 C53.4441824,77.0691219 53.3266741,76.4933078 53.1752373,75.9274358 C52.9079472,74.9315673 52.6249341,73.9439839 52.3634366,72.9481155 C52.1184897,72.0168707 51.8884381,71.0814835 51.6650067,70.1469247 C51.2975863,68.612525 50.9235456,67.0822679 50.5850885,65.5404116 C50.4038608,64.7160446 50.2863525,63.877593 50.1489835,63.0432839 C50.0116146,62.1973756 49.8783833,61.3514674 49.7542548,60.5039021 C49.6632272,59.8775489 49.568062,59.2520242 49.5093078,58.622357 C49.2436727,55.760685 49.1451974,52.8882424 49.2395351,50.0157998 C49.2759462,48.902283 49.4695867,47.7945657 49.5829574,46.6835344 C49.6276437,46.2460814 49.6359189,45.8053143 49.6797777,45.3662043 C49.7691502,44.474728 49.8444549,43.5791092 49.9718935,42.694261 C50.1282954,41.6055994 50.3086956,40.5227375 50.5263343,39.4473321 C50.6877014,38.6478204 50.9392686,37.8648789 51.1238063,37.0670242 C51.3902689,35.922024 51.6161828,34.7654247 51.8942308,33.6237385 C52.1060768,32.751318 52.375022,31.8938106 52.6133488,31.0263611 C52.9956647,29.6369506 53.3697053,28.2433975 53.7569863,26.8556441 C54.0399994,25.8382343 54.3288051,24.8249672 54.6325063,23.815014 C55.1199177,22.1952779 55.6122942,20.5755417 56.1212212,18.9624336 C56.4555407,17.9027699 56.8304089,16.8538769 57.167211,15.7942131 C57.7324096,14.0154032 58.2777477,12.2299651 58.8396362,10.4494981 C58.9745225,10.0244727 59.1334071,9.60358984 59.3022219,9.18933507 C59.3378054,9.10399859 59.4577963,9.01120552 59.5479964,8.99960843 C59.6100606,8.9921498 59.7300516,9.10399859 59.7565323,9.18602103 C60.2398061,10.6632535 60.7156321,12.1438001 61.1856655,13.6251752 C61.7078329,15.2730806 62.2175874,16.9234717 62.7397548,18.5705486 C62.9838743,19.3410625 63.2660598,20.0974917 63.4928013,20.8713196 C63.7617464,21.7851657 63.9810402,22.7114393 64.2359175,23.6261139 C64.5760296,24.8465084 64.8458023,26.0917583 65.2992853,27.2674133 C65.7031168,28.3163064 65.8719316,29.409939 66.1706676,30.4770593 C66.5877395,31.9667194 67.0395673,33.447266 67.4144355,34.9476968 C67.7139991,36.143236 67.9192249,37.359488 68.169137,38.5657979 C68.3487096,39.4332474 68.5456603,40.2998684 68.7078549,41.1706319 C68.8286733,41.8160409 68.9006679,42.4730489 69.0024533,43.1242574 C69.1480974,44.0604732 69.310292,44.9958605 69.4460059,45.9337333 C69.5262757,46.4846921 69.5833748,47.0397935 69.6239235,47.596552 C69.6760575,48.3065846 69.7083309,49.0199313 69.7389493,49.7341066 C69.7993585,51.1434013 69.9077641,52.5568386 69.8912136,53.9677903 C69.8746631,55.3538868 69.7414318,56.7399833 69.6321987,58.1244227 C69.5511014,59.1766298 69.4584188,60.2313225 69.3144297,61.2769015 C69.167958,62.3291086 68.9486642,63.3730307 68.7666091,64.4219238 C68.6548934,65.0590476 68.5680034,65.7011425 68.4413923,66.3357808 C68.2990582,67.0532701 68.1285884,67.7666168 67.9597736,68.4766495 C67.7950964,69.1659694 67.6171788,69.8544608 67.4417438,70.5396382 C67.1785913,71.5744466 66.906336,72.6051125 66.6473212,73.6382639 C66.43051,74.5032279 66.2534199,75.3773054 66.008473,76.2339843 C65.8495884,76.7890857 65.5665754,77.3060757 65.3985881,77.857863 C65.1362631,78.722827 64.9426226,79.6093322 64.6844352,80.4751247 C64.5106553,81.0600524 64.2590881,81.6201248 64.0753779,82.2033956 C63.6301702,83.6060622 63.2122708,85.018671 62.7687181,86.4246517 C62.2258627,88.1446375 61.6705944,89.8604808 61.1194636,91.5788096 C60.9440286,92.1264544 61.884923,91.4860165 62.2490333,90.7668702 C62.6611401,89.9499598 63.0492486,89.1239358 63.4597003,88.3086824 C63.9512493,87.3310411 64.4370057,86.3500858 64.9591731,85.3898433 C65.5434047,84.3102953 66.1690125,83.2564312 66.7689671,82.1859969 C67.2712739,81.2936921 67.8199221,80.4196145 68.2336839,79.4883698 C68.4430473,79.0177764 68.8228807,78.6921721 69.0330717,78.2398059 C69.2457452,77.7808116 69.5163454,77.3475011 69.7794979,76.9158477 C70.3115956,76.0392846 70.8503134,75.1676925 71.396479,74.300243 C71.7787949,73.693774 72.1569732,73.0831625 72.5765276,72.5015488 C73.4396347,71.3101521 74.3151547,70.1253834 75.2146728,68.960499 C75.7335301,68.2877493 76.2879709,67.6390263 76.8672374,67.0159871 C78.0158401,65.7798509 79.1594777,64.5346011 80.3676621,63.357289 C81.168705,62.575176 82.0574653,61.879228 82.9429155,61.1923936 C84.2330248,60.1940396 85.5438221,59.2180553 86.8703424,58.2685834 C87.6746954,57.6944263 88.5179419,57.1674942 89.3620159,56.6538183 C90.9367933,55.6960612 92.5256386,54.7631595 94.1078637,53.8161731 C94.7491944,53.4342302 95.3690096,53.0108618 96.0268909,52.6595738 C97.2483157,52.0067083 98.4995313,51.4143239 99.7209561,50.7614584 C101.352833,49.8873808 102.962366,48.9702208 104.593415,48.0961432 C105.147028,47.8003653 105.748638,47.5932379 106.312181,47.3115447 C107.155428,46.8865193 107.980469,46.4225539 108.821233,45.9909005 C109.2532,45.7663744 109.702546,45.5733317 110.271882,45.3090371 C110.11217,45.7821161 110.02859,46.1549454 109.867223,46.4904917 C109.394707,47.4755896 108.910605,48.4565449 108.394231,49.4201015 C107.778553,50.5667587 107.109087,51.6852465 106.491754,52.8352178 C106.122679,53.5195667 105.83139,54.2478266 105.468935,54.939632 C105.170199,55.5104751 104.800296,56.0456923 104.494112,56.6165353 C103.862712,57.7921904 103.267722,58.9893867 102.628874,60.1633847 C102.321863,60.7267712 101.908101,61.233819 101.616813,61.8046621 C100.828183,63.3423758 99.8773581,64.7806684 98.9414289,66.225589 C97.9872942,67.6995075 97.0166091,69.1659694 96.0177881,70.61089 C95.3036352,71.6423844 94.5869998,72.6821639 93.7694065,73.6316358 C92.5496368,75.0492157 91.2587,76.4087998 89.9603155,77.7559563 C89.1989938,78.5463544 88.3929858,79.2986411 87.5522219,80.0020457 C86.6336707,80.7692455 85.6538828,81.461051 84.696438,82.1785403 C84.1395146,82.5961091 83.5825912,83.0169919 83.0066348,83.4080484 C82.4199206,83.805733 81.8141734,84.1711057 81.2092536,84.540621 C79.6295111,85.5008635 78.0621814,86.4818188 76.4609233,87.4022929 C75.2353609,88.1090116 73.9609746,88.7337078 72.7155516,89.405629 C71.8276188,89.885336 70.958719,90.4031545 70.0649936,90.8720909 C68.9792826,91.4454195 67.8745386,91.9806367 66.78138,92.5365666 C65.3141807,93.2863677 64.5942352,94.4794215 65.5061661,94.1853006 C66.0945354,93.9964004 66.6820772,93.8033577 67.2712739,93.610315 C67.606421,93.5017802 67.9407405,93.3857889 68.2800252,93.2863677 C69.9143843,92.8083177 71.5454332,92.3211541 73.1864125,91.8654739 C74.2737785,91.5647249 75.3694197,91.2946308 76.4691985,91.0419354 C77.6988986,90.7594136 78.9360463,90.4959476 80.1748491,90.2565083 C81.0768498,90.0800358 81.9821606,89.9002492 82.8957467,89.8182268 C84.5085901,89.6682665 86.1263987,89.5398476 87.7450349,89.5042217 C88.8588816,89.4768808 89.976866,89.6052998 91.0915402,89.6914648 C92.1449777,89.7718302 93.1984153,89.8695944 94.2485427,89.9963563 C94.8079486,90.0626371 95.3615619,90.1902276 95.9135201,90.3153325 C97.1167394,90.5845981 98.3199587,90.8596633 99.5165578,91.1537842 C100.783496,91.4661323 102.04878,91.787594 103.306616,92.1339109 C104.271508,92.400691 105.22316,92.7155246 106.18226,93.0005319 C107.133912,93.2822252 108.089702,93.5481767 109.038872,93.8356695 C109.662824,94.0245697 110.277674,94.2457818 110.9008,94.4404815 C112.030369,94.7934266 113.166559,95.1273159 114.291991,95.4910316 C114.866293,95.6766178 115.424044,95.9119145 115.99007,96.1248414 C115.99338,96.1654384 115.99669,96.2085209 116,96.2507749 C115.493556,96.4255904 114.990421,96.6078625 114.483149,96.7760499 C113.29317,97.1679349 112.103191,97.5573344 110.909075,97.9351348 C110.084861,98.1961153 109.249063,98.4239554 108.424849,98.6849359 C107.608911,98.9417739 106.804558,99.2392088 105.986137,99.4861046 C105.430869,99.6534636 104.859878,99.7644838 104.295506,99.8995309 C104.221857,99.9152726 104.133312,99.904502 104.074558,99.9426134 C103.340544,100.41155 102.466679,100.393323 101.668119,100.636076 C100.572478,100.971622 99.4594587,101.259115 98.3431294,101.520924 C97.5354663,101.710653 96.7104253,101.820845 95.8969697,101.977433 C95.1455782,102.124079 94.4032896,102.306351 93.6494156,102.425656 C93.0751142,102.516793 92.4884,102.524249 91.9074785,102.588044 C91.2926284,102.655982 90.6827436,102.791029 90.067066,102.816713 C88.7753017,102.873052 87.4752622,102.966673 86.188463,102.886308 C84.2446101,102.76286 82.30986,102.510164 80.3717998,102.303037 C79.8314269,102.243384 79.2877439,102.18456 78.7581288,102.074368 C78.2525119,101.967491 77.7667555,101.774448 77.2636212,101.649343 C76.0893652,101.353565 74.9010414,101.114126 73.7375432,100.782722 C72.3530963,100.390009 70.9926475,99.9194151 69.6164758,99.4960467 C68.8242599,99.3524384 68.5106284,99.345258 68.6755815,99.4745055 Z" id="Stroke-1" stroke="#91C962" stroke-width="3"></path>
    </g>
</svg>