<?xml version="1.0" encoding="UTF-8"?>
<svg width="120px" height="120px" viewBox="0 0 120 120" version="1.1" xmlns="http://www.w3.org/2000/svg" xmlns:xlink="http://www.w3.org/1999/xlink">
    <!-- Generator: Sketch 58 (84663) - https://sketch.com -->
    <title>Icon / hardware</title>
    <desc>Created with Sketch.</desc>
    <g id="Icon-/-hardware" stroke="none" stroke-width="1" fill="none" fill-rule="evenodd">
        <g id="Group-18" transform="translate(9.000000, 13.000000)" fill="#BCE4ED">
            <path d="M18.4097875,4.89663462 C18.3122875,4.89663462 18.2342875,4.97008413 18.2245375,5.06638462 L15.4409125,37.4510937 L15.6261625,37.653488 L88.0702875,37.653488 L88.2539125,37.4494615 L84.9307875,5.0647524 C84.9210375,4.96845192 84.8414125,4.89663462 84.7455375,4.89663462 L18.4097875,4.89663462 Z M88.0702875,42.5501226 L15.6261625,42.5501226 C14.2124125,42.5501226 12.8539125,41.951101 11.8967875,40.9048534 C10.9412875,39.8586058 10.4619125,38.4467428 10.5854125,37.0316154 L13.3674125,4.64527404 C13.5965375,1.99619471 15.7642875,0 18.4097875,0 L84.7455375,0 C87.3487875,0 89.5132875,1.96191827 89.7797875,4.56203125 L93.1045375,36.9467404 C93.2524125,38.3732933 92.7876625,39.8047428 91.8305375,40.8722091 C90.8717875,41.9380433 89.5019125,42.5501226 88.0702875,42.5501226 L88.0702875,42.5501226 Z" id="Fill-1"></path>
            <path d="M73.8073375,86.1174394 L26.7018375,86.1174394 C25.3563375,86.1174394 24.2643375,85.0222255 24.2643375,83.6691221 C24.2643375,82.3160187 25.3563375,81.2208048 26.7018375,81.2208048 L73.8073375,81.2208048 C75.1528375,81.2208048 76.2448375,82.3160187 76.2448375,83.6691221 C76.2448375,85.0222255 75.1528375,86.1174394 73.8073375,86.1174394" id="Fill-3"></path>
            <path d="M89.916125,82.7758127 C89.425375,82.7758127 89.02725,83.1773368 89.02725,83.6686325 C89.02725,84.1615603 89.425375,84.5630844 89.916125,84.5630844 C90.406875,84.5630844 90.805,84.1615603 90.805,83.6686325 C90.805,83.1773368 90.406875,82.7758127 89.916125,82.7758127 M89.916125,87.8324041 C87.631375,87.8324041 85.77075,85.9651541 85.77075,83.6686325 C85.77075,81.373743 87.631375,79.506493 89.916125,79.506493 C92.200875,79.506493 94.0615,81.373743 94.0615,83.6686325 C94.0615,85.9651541 92.200875,87.8324041 89.916125,87.8324041" id="Fill-5"></path>
            <g id="Group-9" transform="translate(67.863095, 45.272325)">
                <path d="M33.1868798,29.0953132 C32.2037548,29.0953132 31.2758798,28.491395 30.9070048,27.512068 L22.7137548,5.74979159 L2.60275476,5.74163053 C1.25725476,5.74163053 0.166879762,4.64641659 0.166879762,3.29331322 C0.166879762,1.94184207 1.25887976,0.844995913 2.60437976,0.844995913 L2.60600476,0.844995913 L23.5750048,0.853156971 C25.0765048,0.853156971 26.4025048,1.76066659 26.9533798,3.16436851 L35.4667548,25.7802916 C35.9428798,27.0452555 35.3091298,28.4571185 34.0481298,28.9353565 C33.7637548,29.0447147 33.4745048,29.0953132 33.1868798,29.0953132" id="Fill-7"></path>
            </g>
            <path d="M81.11675,33.865125 C79.86225,33.865125 78.794625,32.8972236 78.690625,31.6175697 L77.234625,13.8052452 C77.228125,13.7415889 77.150125,13.6697716 77.052625,13.6697716 L24.698375,13.7399567 L24.695125,13.7399567 C23.35125,13.7399567 22.25925,12.646375 22.2576232,11.2949038 C22.256,9.94343269 23.346375,8.84495433 24.691875,8.84332212 L77.046125,8.77313702 L77.052625,8.77313702 C79.677,8.77313702 81.8415,10.7497452 82.09175,13.3727091 L83.549375,31.2160457 C83.65825,32.5642524 82.6605,33.7459736 81.319875,33.8569639 C81.251625,33.8634928 81.183375,33.865125 81.11675,33.865125" id="Fill-10"></path>
            <path d="M98.4204,95.8708827 L5.0609,95.8708827 C2.270775,95.8708827 0.00065,93.5906832 0.00065,90.788176 L0.00065,76.2141591 C0.00065,73.4100197 2.270775,71.1298202 5.0609,71.1298202 L82.373525,71.1298202 C83.719025,71.1298202 84.811025,72.2266663 84.811025,73.5781375 C84.811025,74.9312409 83.719025,76.0264548 82.373525,76.0264548 L5.0609,76.0264548 C4.9569,76.0264548 4.87565,76.1113298 4.87565,76.2141591 L4.87565,90.788176 C4.87565,90.8910053 4.9569,90.9742481 5.0609,90.9742481 L98.4204,90.9742481 C98.522775,90.9742481 98.60565,90.8910053 98.60565,90.788176 L98.60565,71.9181784 C98.60565,70.5667072 99.69765,69.4698611 101.04315,69.4698611 C102.38865,69.4698611 103.48065,70.5667072 103.48065,71.9181784 L103.48065,90.788176 C103.48065,93.5906832 101.210525,95.8708827 98.4204,95.8708827" id="Fill-12"></path>
            <path d="M5.293925,68.1583791 C4.9933,68.1583791 4.69105,68.1028839 4.3953,67.9853647 C3.14405,67.4859079 2.531425,66.0642517 3.02705,64.8074488 L9.119175,49.3814175 C9.879675,47.4309248 11.728925,46.1643286 13.82355,46.1643286 L25.937925,46.1643286 C27.283425,46.1643286 28.375425,47.2611748 28.375425,48.6126459 C28.375425,49.9657493 27.283425,51.0609632 25.937925,51.0609632 L13.82355,51.0609632 C13.7488,51.0609632 13.68055,51.1082974 13.65455,51.1768502 L7.5608,66.6110425 C7.18055,67.5724151 6.26405,68.1583791 5.293925,68.1583791" id="Fill-14"></path>
            <path d="M68.22465,61.05173 L68.200275,61.05173 L35.846525,60.9080954 C34.35315,60.9015666 32.9459,60.2356243 31.988775,59.0849151 C31.0284,57.9325738 30.627025,56.4244103 30.8854,54.9456267 L32.053775,48.2600882 C32.287775,46.9298358 33.5634,46.0419127 34.8764,46.2720546 C36.2024,46.5054608 37.088025,47.7753214 36.85565,49.107206 L35.6889,55.7927445 L35.869275,56.0114608 L68.223025,56.1550954 L70.836025,55.7372493 L68.408275,55.9527012 L67.777775,48.7889248 C67.657525,47.4423502 68.6504,46.2541002 69.991025,46.1349488 C71.3219,46.0223262 72.513025,47.008182 72.633275,48.3580209 L73.2654,55.5217974 C73.3889,56.9450858 72.909525,58.3618454 71.9459,59.4113575 C70.9904,60.4543406 69.63515,61.05173 68.22465,61.05173" id="Fill-16"></path>
        </g>
    </g>
</svg>