<?xml version="1.0" encoding="UTF-8"?>
<svg width="120px" height="120px" viewBox="0 0 120 120" version="1.1" xmlns="http://www.w3.org/2000/svg" xmlns:xlink="http://www.w3.org/1999/xlink">
    <!-- Generator: Sketch 58 (84663) - https://sketch.com -->
    <title>Icon / management</title>
    <desc>Created with Sketch.</desc>
    <defs>
        <polygon id="path-1" points="0.259223655 0.96516 24.2814194 0.96516 24.2814194 36 0.259223655 36"></polygon>
        <polygon id="path-3" points="0.734322581 0.96498 25.4375808 0.96498 25.4375808 36 0.734322581 36"></polygon>
        <polygon id="path-5" points="0.0690064516 0.4697 19.6614194 0.4697 19.6614194 27.7991 0.0690064516 27.7991"></polygon>
        <polygon id="path-7" points="0 1.46916 19.5938581 1.46916 19.5938581 28.8 0 28.8"></polygon>
    </defs>
    <g id="Icon-/-management" stroke="none" stroke-width="1" fill="none" fill-rule="evenodd">
        <g id="Group-19" transform="translate(4.000000, 24.000000)">
            <g id="Group-3" transform="translate(25.290323, 34.691400)">
                <mask id="mask-2" fill="white">
                    <use xlink:href="#path-1"></use>
                </mask>
                <g id="Clip-2"></g>
                <path d="M24.2814194,3.12336 C24.2814194,1.93356 23.3077419,0.96516 22.1136774,0.96516 L6.64141935,0.96516 C5.56477419,0.96516 4.64167742,1.76796 4.49535484,2.83176 L0.279096774,33.55056 C0.118322581,34.72776 0.951096774,35.81856 2.12348387,35.97876 C2.22464516,35.99316 2.3276129,36.00036 2.42696774,36.00036 C3.50180645,36.00036 4.42490323,35.19576 4.57122581,34.13376 L8.53096774,5.28156 L22.1136774,5.28156 C23.3077419,5.28156 24.2814194,4.31316 24.2814194,3.12336" id="Fill-1" stroke="#BDE5ED" fill="#BDE5ED" mask="url(#mask-2)"></path>
            </g>
            <g id="Group-6" transform="translate(59.612903, 34.691400)">
                <mask id="mask-4" fill="white">
                    <use xlink:href="#path-3"></use>
                </mask>
                <g id="Clip-5"></g>
                <path d="M21.2014194,2.82798 C21.0532903,1.76598 20.1301935,0.96498 19.0553548,0.96498 L2.90025806,0.96498 C1.708,0.96498 0.734322581,1.93338 0.734322581,3.12318 C0.734322581,4.31298 1.708,5.28138 2.90025806,5.28138 L17.1658065,5.28138 L21.1237419,34.13718 C21.271871,35.19738 22.1949677,36.00018 23.2698065,36.00018 C23.3691613,36.00018 23.4685161,35.99298 23.5660645,35.97858 C24.7474839,35.81658 25.5784516,34.72758 25.4176774,33.54858 L21.2014194,2.82798 Z" id="Fill-4" stroke="#BDE5ED" fill="#BDE5ED" mask="url(#mask-4)"></path>
            </g>
            <path d="M55.6103484,4.31784 C62.6518968,4.31784 68.3819613,10.02564 68.3819613,17.04204 C68.3819613,24.05844 62.6518968,29.76804 55.6103484,29.76804 C48.5706065,29.76804 42.8405419,24.05844 42.8405419,17.04204 C42.8405419,10.02564 48.5706065,4.31784 55.6103484,4.31784 M55.6103484,34.08444 C65.0418323,34.08444 72.7156387,26.43804 72.7156387,17.04204 C72.7156387,7.64604 65.0418323,0.00144 55.6103484,0.00144 C46.1788645,0.00144 38.5068645,7.64604 38.5068645,17.04204 C38.5068645,26.43804 46.1788645,34.08444 55.6103484,34.08444" id="Fill-7" stroke="#BDE5ED" fill="#BDE5ED"></path>
            <g id="Group-11" transform="translate(92.129032, 42.891400)">
                <mask id="mask-6" fill="white">
                    <use xlink:href="#path-5"></use>
                </mask>
                <g id="Clip-10"></g>
                <path d="M19.6419097,25.3493 L16.4824258,2.3363 C16.3379097,1.2725 15.4148129,0.4697 14.3363613,0.4697 L2.23494194,0.4697 C1.04087742,0.4697 0.0690064516,1.4399 0.0690064516,2.6279 C0.0690064516,3.8177 1.04087742,4.7861 2.23494194,4.7861 L12.4486194,4.7861 L15.3479742,25.9361 C15.4979097,26.9981 16.4192,27.7991 17.4940387,27.7991 C17.5933935,27.7991 17.6927484,27.7919 17.7902968,27.7793 C18.9717161,27.6173 19.8026839,26.5265 19.6419097,25.3493" id="Fill-9" fill="#BDE5ED" mask="url(#mask-6)"></path>
            </g>
            <path d="M89.1912,13.04802 C81.8262968,13.04802 75.8342968,19.02042 75.8342968,26.35722 C75.8342968,27.54702 76.8061677,28.51542 78.0002323,28.51542 C79.1942968,28.51542 80.1661677,27.54702 80.1661677,26.35722 C80.1661677,21.39822 84.2162323,17.36622 89.1912,17.36622 C94.1679742,17.36622 98.2162323,21.39822 98.2162323,26.35722 C98.2162323,31.31622 94.1679742,35.35002 89.1912,35.35002 C87.9971355,35.35002 87.0252645,36.31842 87.0252645,37.50822 C87.0252645,38.69802 87.9971355,39.66822 89.1912,39.66822 C96.5561032,39.66822 102.548103,33.69762 102.548103,26.35722 C102.548103,19.02042 96.5561032,13.04802 89.1912,13.04802 Z" id="Fill-12" stroke="#BDE5ED" fill="#BDE5ED"></path>
            <g id="Group-16" transform="translate(0.000000, 41.891400)">
                <mask id="mask-8" fill="white">
                    <use xlink:href="#path-7"></use>
                </mask>
                <g id="Clip-15"></g>
                <path d="M17.4279226,1.46916 L5.32650323,1.46916 C4.24985806,1.46916 3.32676129,2.27196 3.18043871,3.33576 L0.0191483871,26.34876 C-0.141625806,27.52776 0.689341935,28.61676 1.86714839,28.77876 C1.96830968,28.79316 2.06766452,28.80036 2.16882581,28.80036 C3.24185806,28.80036 4.16314839,27.99756 4.31308387,26.93196 L7.21605161,5.78556 L17.4279226,5.78556 C18.6219871,5.78556 19.5938581,4.81716 19.5938581,3.62736 C19.5938581,2.43936 18.6219871,1.46916 17.4279226,1.46916" id="Fill-14" fill="#BDE5ED" mask="url(#mask-8)"></path>
            </g>
            <path d="M22.598529,35.3502 C17.6235613,35.3502 13.5753032,31.3164 13.5753032,26.3574 C13.5753032,21.3984 17.6235613,17.3664 22.598529,17.3664 C27.5753032,17.3664 31.6235613,21.3984 31.6235613,26.3574 C31.6235613,27.5472 32.5954323,28.5156 33.7894968,28.5156 C34.9835613,28.5156 35.9572387,27.5472 35.9572387,26.3574 C35.9572387,19.0206 29.9634323,13.0482 22.598529,13.0482 C15.2336258,13.0482 9.24162581,19.0206 9.24162581,26.3574 C9.24162581,33.6978 15.2336258,39.6666 22.598529,39.6666 C23.7925935,39.6666 24.7644645,38.6982 24.7644645,37.5084 C24.7644645,36.3186 23.7925935,35.3502 22.598529,35.3502" id="Fill-17" stroke="#BDE5ED" fill="#BDE5ED"></path>
        </g>
    </g>
</svg>