<?xml version="1.0" encoding="UTF-8"?>
<svg width="120px" height="120px" viewBox="0 0 120 120" version="1.1" xmlns="http://www.w3.org/2000/svg" xmlns:xlink="http://www.w3.org/1999/xlink">
    <!-- Generator: Sketch 58 (84663) - https://sketch.com -->
    <title>Icon / manufacturer</title>
    <desc>Created with Sketch.</desc>
    <defs>
        <polygon id="path-1" points="0.5209 0.344 49.5679 0.344 49.5679 3.3437 0.5209 3.3437"></polygon>
        <polygon id="path-3" points="0.3351 0.344 32.6141 0.344 32.6141 22.3899 0.3351 22.3899"></polygon>
        <polygon id="path-5" points="0 0.329 56.3379 0.329 56.3379 58 0 58"></polygon>
    </defs>
    <g id="Icon-/-manufacturer" stroke="none" stroke-width="1" fill="none" fill-rule="evenodd">
        <g id="Group-58" transform="translate(1.000000, 20.000000)">
            <g id="Group-3" transform="translate(32.000000, 0.656200)">
                <mask id="mask-2" fill="white">
                    <use xlink:href="#path-1"></use>
                </mask>
                <g id="Clip-2"></g>
                <path d="M48.0679,3.3437 L2.0209,3.3437 C1.1929,3.3437 0.5209,2.6727 0.5209,1.8437 C0.5209,1.0147 1.1929,0.3437 2.0209,0.3437 L48.0679,0.3437 C48.8969,0.3437 49.5679,1.0147 49.5679,1.8437 C49.5679,2.6727 48.8969,3.3437 48.0679,3.3437" id="Fill-1" fill="#8FC863" mask="url(#mask-2)"></path>
            </g>
            <g id="Group-6" transform="translate(43.000000, 0.656200)">
                <mask id="mask-4" fill="white">
                    <use xlink:href="#path-3"></use>
                </mask>
                <g id="Clip-5"></g>
                <polygon id="Fill-4" fill="#8FC863" mask="url(#mask-4)" points="2.4761 13.7109 0.3351 14.7229 0.3351 22.3899 1.8351 22.3899 3.3351 22.3899 3.3351 3.3439 24.7501 3.3439 29.5211 22.3899 32.6141 22.3899 27.0911 0.3439 0.3351 0.3439 0.3351 11.4049 1.1941 10.9989"></polygon>
            </g>
            <path d="M39.5225,23.0463 C39.6745,23.1073 39.8295,23.1633 39.9805,23.2273 C40.1905,23.1153 40.4265,23.0463 40.6805,23.0463 L39.5225,23.0463 Z" id="Fill-7" fill="#8FC863"></path>
            <path d="M37.6479,18.0668 L43.3349,15.3788 L43.3349,12.0608 L35.7299,15.6548 C35.3269,15.8458 35.0299,16.2058 34.9189,16.6368 L33.6909,21.4018 C34.6859,21.5708 35.6619,21.7918 36.6199,22.0608 L37.6479,18.0668 Z" id="Fill-9" fill="#8FC863"></path>
            <polygon id="Fill-11" fill="#8FC863" points="45.4761 14.3671 44.1941 11.6551 43.3351 12.0611 43.3351 15.3791"></polygon>
            <path d="M57.1069,55.4999 C56.9029,56.5159 56.6469,57.5119 56.3379,58.4869 L85.5559,59.0039 C85.7859,57.9679 86.1129,56.9709 86.5309,56.0209 L57.1069,55.4999 Z" id="Fill-13" fill="#8FC863"></path>
            <path d="M95.9727,26.0463 L102.7847,46.4203 C103.9537,46.5263 105.0887,46.7513 106.1727,47.0933 L98.4747,24.0703 C98.2707,23.4593 97.6977,23.0463 97.0527,23.0463 L75.6137,23.0463 L76.3657,26.0463 L95.9727,26.0463 Z" id="Fill-15" fill="#8FC863"></path>
            <path d="M46.335,23.0463 L44.835,23.0463 L44.835,25.8443 C44.934,25.9103 45.032,25.9793 45.13,26.0463 L76.365,26.0463 L75.614,23.0463 L72.522,23.0463 L46.335,23.0463 Z" id="Fill-17" fill="#8FC863"></path>
            <path d="M43.335,23.0463 L40.681,23.0463 C40.426,23.0463 40.19,23.1153 39.981,23.2273 C41.14,23.7143 42.258,24.2813 43.335,24.9113 L43.335,23.0463 Z" id="Fill-19" fill="#8FC863"></path>
            <path d="M44.835,25.8442 L44.835,23.0462 L43.335,23.0462 L43.335,24.9112 C43.844,25.2082 44.346,25.5172 44.835,25.8442" id="Fill-21" fill="#8FC863"></path>
            <path d="M36.3657,23.0463 L39.5227,23.0463 C38.5777,22.6683 37.6097,22.3383 36.6197,22.0613 L36.3657,23.0463 Z" id="Fill-23" fill="#8FC863"></path>
            <path d="M39.1807,26.0463 L38.9447,26.0463 C39.0237,26.0803 39.1017,26.1183 39.1807,26.1533 L39.1807,26.0463 Z" id="Fill-25" fill="#8FC863"></path>
            <path d="M45.1299,26.0463 L44.8349,26.0463 L43.3349,26.0463 L42.1809,26.0463 L42.1809,27.7063 C49.6609,32.2373 54.6719,40.4543 54.6719,49.8203 C54.6719,51.7523 54.4519,53.6333 54.0469,55.4453 L57.1069,55.5003 C57.4749,53.6633 57.6719,51.7643 57.6719,49.8203 C57.6719,39.9633 52.6969,31.2493 45.1299,26.0463" id="Fill-27" fill="#8FC863"></path>
            <g id="Group-31" transform="translate(0.000000, 20.656200)">
                <mask id="mask-6" fill="white">
                    <use xlink:href="#path-5"></use>
                </mask>
                <g id="Clip-30"></g>
                <path d="M28.8359,55 C14.5899,55 2.9999,43.41 2.9999,29.164 C2.9999,14.918 14.5899,3.329 28.8359,3.329 C30.2389,3.329 31.6149,3.445 32.9579,3.661 C32.9649,3.613 32.9649,3.564 32.9779,3.516 L33.6909,0.746 C32.1109,0.477 30.4909,0.329 28.8359,0.329 C12.9359,0.329 -0.0001,13.264 -0.0001,29.164 C-0.0001,45.064 12.9359,58 28.8359,58 C41.7169,58 52.6499,49.509 56.3379,37.831 L53.1899,37.775 C49.6359,47.799 40.0629,55 28.8359,55" id="Fill-29" fill="#8FC863" mask="url(#mask-6)"></path>
            </g>
            <path d="M32.9575,24.3173 C35.0465,24.6533 37.0535,25.2393 38.9445,26.0463 L39.1805,26.0463 L39.1805,24.5463 C39.1805,23.9723 39.5065,23.4793 39.9805,23.2273 C39.8295,23.1633 39.6745,23.1073 39.5225,23.0463 L36.3655,23.0463 L36.6195,22.0613 C35.6625,21.7923 34.6855,21.5713 33.6905,21.4013 L32.9775,24.1723 C32.9655,24.2203 32.9645,24.2693 32.9575,24.3173" id="Fill-32" fill="#8FC863"></path>
            <path d="M42.1807,27.7065 L42.1807,26.0465 L39.1807,26.0465 L39.1807,26.1535 C40.2177,26.6085 41.2207,27.1245 42.1807,27.7065" id="Fill-34" fill="#8FC863"></path>
            <path d="M54.0474,55.4458 C53.8194,56.4648 53.5344,57.4618 53.1904,58.4308 L56.3384,58.4868 C56.6464,57.5118 56.9034,56.5158 57.1074,55.4998 L54.0474,55.4458 Z" id="Fill-36" fill="#8FC863"></path>
            <path d="M45.1299,26.0463 C45.0319,25.9793 44.9339,25.9103 44.8349,25.8443 L44.8349,26.0463 L45.1299,26.0463 Z" id="Fill-38" fill="#8FC863"></path>
            <path d="M43.335,26.0463 L43.335,24.9113 C42.258,24.2813 41.14,23.7143 39.981,23.2273 C39.507,23.4793 39.181,23.9723 39.181,24.5463 L39.181,26.0463 L42.181,26.0463 L43.335,26.0463 Z" id="Fill-40" fill="#8FC863"></path>
            <path d="M43.335,26.0463 L44.835,26.0463 L44.835,25.8443 C44.346,25.5173 43.844,25.2083 43.335,24.9113 L43.335,26.0463 Z" id="Fill-42" fill="#8FC863"></path>
            <path d="M106.1729,47.0937 L107.4339,50.8637 C111.6139,53.0687 114.4739,57.4547 114.4739,62.5007 C114.4739,69.7547 108.5729,75.6557 101.3189,75.6557 C94.0659,75.6557 88.1639,69.7547 88.1639,62.5007 C88.1639,61.3077 88.3379,60.1577 88.6369,59.0577 L85.5559,59.0037 C85.3059,60.1317 85.1639,61.2987 85.1639,62.5007 C85.1639,71.4087 92.4109,78.6557 101.3189,78.6557 C110.2269,78.6557 117.4739,71.4087 117.4739,62.5007 C117.4739,55.2837 112.7159,49.1597 106.1729,47.0937" id="Fill-44" fill="#8FC863"></path>
            <path d="M101.3193,49.3461 C102.1843,49.3461 103.0273,49.4351 103.8463,49.5961 L102.7843,46.4201 C102.3013,46.3761 101.8143,46.3461 101.3193,46.3461 C94.7163,46.3461 89.0343,50.3321 86.5313,56.0201 L89.8493,56.0791 C92.1053,52.0671 96.3983,49.3461 101.3193,49.3461" id="Fill-46" fill="#8FC863"></path>
            <path d="M89.8496,56.0791 L86.5316,56.0201 C86.1136,56.9711 85.7856,57.9681 85.5566,59.0041 L88.6366,59.0581 C88.9226,58.0081 89.3276,57.0081 89.8496,56.0791" id="Fill-48" fill="#8FC863"></path>
            <path d="M103.8462,49.5957 C105.1172,49.8437 106.3212,50.2767 107.4332,50.8637 L106.1732,47.0937 C105.0882,46.7517 103.9542,46.5267 102.7842,46.4207 L103.8462,49.5957 Z" id="Fill-50" fill="#8FC863"></path>
            <path d="M87.7026,23.9785 L87.7026,13.5235" id="Stroke-52" stroke="#8FC863" stroke-width="3" stroke-linecap="round"></path>
            <path d="M26.521,61.8203 C33.139,61.8203 38.521,56.4353 38.521,49.8183 C38.521,43.2023 33.139,37.8203 26.521,37.8203" id="Stroke-54" stroke="#8FC863" stroke-width="3" stroke-linecap="round"></path>
            <path d="M107.232934,64.4204 C107.2439,61.1594 104.5989,58.4974 101.3369,58.4863717 C98.0769,58.4764 95.4159,61.1194 95.4049,64.3814" id="Stroke-56" stroke="#8FC863" stroke-width="3" stroke-linecap="round"></path>
        </g>
    </g>
</svg>