<?xml version="1.0" encoding="UTF-8"?>
<svg width="120px" height="120px" viewBox="0 0 120 120" version="1.1" xmlns="http://www.w3.org/2000/svg" xmlns:xlink="http://www.w3.org/1999/xlink">
    <!-- Generator: Sketch 58 (84663) - https://sketch.com -->
    <title>Icon / payments</title>
    <desc>Created with Sketch.</desc>
    <g id="Icon-/-payments" stroke="none" stroke-width="1" fill="none" fill-rule="evenodd">
        <g id="Group-41" transform="translate(3.000000, 5.000000)">
            <path d="M75.0169923,76 L38.0757379,76 C36.4300561,76 35.0927302,74.66074 35.0927302,73.0151717 L35.0927302,69.9353207 C35.0927302,69.3171147 35.5921326,68.8174075 36.2099615,68.8174075 C36.8266732,68.8174075 37.3271929,69.3171147 37.3271929,69.9353207 L37.3271929,73.0151717 C37.3271929,73.4209742 37.6690657,73.7641735 38.0757379,73.7641735 L75.0169923,73.7641735 C75.4225473,73.7641735 75.7655373,73.4209742 75.7655373,73.0151717 L75.7655373,36.9613521 C75.706324,36.6103274 75.3599823,36.2358265 74.9231449,36.2358265 L37.9830077,36.2358265 C37.5696321,36.2358265 37.2344627,36.5712004 37.2344627,36.9848283 L37.2344627,62.4229438 C37.2344627,63.0411499 36.733943,63.5408571 36.1172313,63.5408571 C35.4994024,63.5408571 35,63.0411499 35,62.4229438 L35,36.9848283 C35,35.33926 36.3373259,34 37.9830077,34 L74.9231449,34 C76.488386,34 77.8368842,35.2207612 77.9944138,36.7802502 C77.9977655,36.8171413 78,36.8540325 78,36.8920415 L78,73.0151717 C78,74.66074 76.6626741,76 75.0169923,76" id="Fill-1" fill="#91CA62"></path>
            <path d="M75.0169923,76 L38.0757379,76 C36.4300561,76 35.0927302,74.66074 35.0927302,73.0151717 L35.0927302,69.9353207 C35.0927302,69.3171147 35.5921326,68.8174075 36.2099615,68.8174075 C36.8266732,68.8174075 37.3271929,69.3171147 37.3271929,69.9353207 L37.3271929,73.0151717 C37.3271929,73.4209742 37.6690657,73.7641735 38.0757379,73.7641735 L75.0169923,73.7641735 C75.4225473,73.7641735 75.7655373,73.4209742 75.7655373,73.0151717 L75.7655373,36.9613521 C75.706324,36.6103274 75.3599823,36.2358265 74.9231449,36.2358265 L37.9830077,36.2358265 C37.5696321,36.2358265 37.2344627,36.5712004 37.2344627,36.9848283 L37.2344627,62.4229438 C37.2344627,63.0411499 36.733943,63.5408571 36.1172313,63.5408571 C35.4994024,63.5408571 35,63.0411499 35,62.4229438 L35,36.9848283 C35,35.33926 36.3373259,34 37.9830077,34 L74.9231449,34 C76.488386,34 77.8368842,35.2207612 77.9944138,36.7802502 C77.9977655,36.8171413 78,36.8540325 78,36.8920415 L78,73.0151717 C78,74.66074 76.6626741,76 75.0169923,76 Z" id="Stroke-3" stroke="#91CA62" stroke-width="0.5"></path>
            <path d="M48.9768385,62 C48.7149746,62 48.4531107,61.8871163 48.2536441,61.6625007 L43.8121872,56.6610609 C43.2884594,56.071301 43,55.3041525 43,54.500144 C43,53.6961355 43.2884594,52.9289869 43.8121872,52.3392271 L48.2536441,47.3377872 C48.6536003,46.8874043 49.3000767,46.8874043 49.7000329,47.3377872 C50.099989,47.7881702 50.099989,48.516155 49.7000329,48.966538 L45.258576,53.9679779 C45.1194608,54.1246328 45.0458116,54.3089328 45.0458116,54.500144 C45.0458116,54.6913552 45.1194608,54.8745033 45.258576,55.0323101 L49.7000329,60.0337499 C50.099989,60.4841329 50.099989,61.2121177 49.7000329,61.6625007 C49.5005663,61.8871163 49.2387024,62 48.9768385,62" id="Fill-5" fill="#91CA62"></path>
            <path d="M48.9768385,62 C48.7149746,62 48.4531107,61.8871163 48.2536441,61.6625007 L43.8121872,56.6610609 C43.2884594,56.071301 43,55.3041525 43,54.500144 C43,53.6961355 43.2884594,52.9289869 43.8121872,52.3392271 L48.2536441,47.3377872 C48.6536003,46.8874043 49.3000767,46.8874043 49.7000329,47.3377872 C50.099989,47.7881702 50.099989,48.516155 49.7000329,48.966538 L45.258576,53.9679779 C45.1194608,54.1246328 45.0458116,54.3089328 45.0458116,54.500144 C45.0458116,54.6913552 45.1194608,54.8745033 45.258576,55.0323101 L49.7000329,60.0337499 C50.099989,60.4841329 50.099989,61.2121177 49.7000329,61.6625007 C49.5005663,61.8871163 49.2387024,62 48.9768385,62 Z" id="Stroke-7" stroke="#91CA62" stroke-width="0.5"></path>
            <path d="M64.0231615,62 C63.7612976,62 63.4994337,61.8871163 63.2999671,61.6625007 C62.900011,61.2121177 62.900011,60.4841329 63.2999671,60.0337499 L67.741424,55.0323101 C67.8805392,54.8745033 67.9541884,54.6913552 67.9541884,54.500144 C67.9541884,54.3089328 67.8805392,54.1246328 67.741424,53.9679779 L63.2999671,48.966538 C62.900011,48.516155 62.900011,47.7881702 63.2999671,47.3377872 C63.6999233,46.8874043 64.3463997,46.8874043 64.7463559,47.3377872 L69.1878128,52.3392271 C69.7115406,52.9289869 70,53.6961355 70,54.500144 C70,55.3041525 69.7115406,56.071301 69.1878128,56.6610609 L64.7463559,61.6625007 C64.5468893,61.8871163 64.2850254,62 64.0231615,62" id="Fill-9" fill="#91CA62"></path>
            <path d="M64.0231615,62 C63.7612976,62 63.4994337,61.8871163 63.2999671,61.6625007 C62.900011,61.2121177 62.900011,60.4841329 63.2999671,60.0337499 L67.741424,55.0323101 C67.8805392,54.8745033 67.9541884,54.6913552 67.9541884,54.500144 C67.9541884,54.3089328 67.8805392,54.1246328 67.741424,53.9679779 L63.2999671,48.966538 C62.900011,48.516155 62.900011,47.7881702 63.2999671,47.3377872 C63.6999233,46.8874043 64.3463997,46.8874043 64.7463559,47.3377872 L69.1878128,52.3392271 C69.7115406,52.9289869 70,53.6961355 70,54.500144 C70,55.3041525 69.7115406,56.071301 69.1878128,56.6610609 L64.7463559,61.6625007 C64.5468893,61.8871163 64.2850254,62 64.0231615,62 Z" id="Stroke-11" stroke="#91CA62" stroke-width="0.5"></path>
            <path d="M54.2203978,63 C54.1265622,63 54.0327267,62.9899118 53.9376726,62.9697354 C53.2820426,62.8262591 52.8774531,62.2220889 53.0334394,61.6201606 L56.5955331,47.8609989 C56.7515194,47.2590706 57.412024,46.8880496 58.0627794,47.0304051 C58.7171907,47.1738815 59.1217802,47.7780516 58.9670126,48.3799799 L55.4049188,62.1380207 C55.2708681,62.653639 54.7712244,63 54.2203978,63" id="Fill-13" fill="#91CA62"></path>
            <path d="M54.2203978,63 C54.1265622,63 54.0327267,62.9899118 53.9376726,62.9697354 C53.2820426,62.8262591 52.8774531,62.2220889 53.0334394,61.6201606 L56.5955331,47.8609989 C56.7515194,47.2590706 57.412024,46.8880496 58.0627794,47.0304051 C58.7171907,47.1738815 59.1217802,47.7780516 58.9670126,48.3799799 L55.4049188,62.1380207 C55.2708681,62.653639 54.7712244,63 54.2203978,63 Z" id="Stroke-15" stroke="#91CA62" stroke-width="0.5"></path>
            <path d="M13.4994273,12.2909507 C12.8327606,12.2909507 12.2909507,12.8339061 12.2909507,13.5005727 C12.2909507,14.1672394 12.8327606,14.7090493 13.4994273,14.7090493 C14.1660939,14.7090493 14.7090493,14.1672394 14.7090493,13.5005727 C14.7090493,12.8339061 14.1660939,12.2909507 13.4994273,12.2909507 M13.4994273,17 C11.5693013,17 10,15.4295533 10,13.5005727 C10,11.5704467 11.5693013,10 13.4994273,10 C15.4295533,10 17,11.5704467 17,13.5005727 C17,15.4295533 15.4295533,17 13.4994273,17" id="Fill-17" fill="#91CA62"></path>
            <path d="M13.4994273,12.2909507 C12.8327606,12.2909507 12.2909507,12.8339061 12.2909507,13.5005727 C12.2909507,14.1672394 12.8327606,14.7090493 13.4994273,14.7090493 C14.1660939,14.7090493 14.7090493,14.1672394 14.7090493,13.5005727 C14.7090493,12.8339061 14.1660939,12.2909507 13.4994273,12.2909507 Z M13.4994273,17 C11.5693013,17 10,15.4295533 10,13.5005727 C10,11.5704467 11.5693013,10 13.4994273,10 C15.4295533,10 17,11.5704467 17,13.5005727 C17,15.4295533 15.4295533,17 13.4994273,17 Z" id="Stroke-19" stroke="#91CA62" stroke-width="0.5"></path>
            <path d="M22.5,12.2909507 C21.8334424,12.2909507 21.2905759,12.8339061 21.2905759,13.5005727 C21.2905759,14.1672394 21.8334424,14.7090493 22.5,14.7090493 C23.1665576,14.7090493 23.7094241,14.1672394 23.7094241,13.5005727 C23.7094241,12.8339061 23.1665576,12.2909507 22.5,12.2909507 M22.5,17 C20.5701898,17 19,15.4295533 19,13.5005727 C19,11.5704467 20.5701898,10 22.5,10 C24.4298102,10 26,11.5704467 26,13.5005727 C26,15.4295533 24.4298102,17 22.5,17" id="Fill-21" fill="#91CA62"></path>
            <path d="M22.5,12.2909507 C21.8334424,12.2909507 21.2905759,12.8339061 21.2905759,13.5005727 C21.2905759,14.1672394 21.8334424,14.7090493 22.5,14.7090493 C23.1665576,14.7090493 23.7094241,14.1672394 23.7094241,13.5005727 C23.7094241,12.8339061 23.1665576,12.2909507 22.5,12.2909507 Z M22.5,17 C20.5701898,17 19,15.4295533 19,13.5005727 C19,11.5704467 20.5701898,10 22.5,10 C24.4298102,10 26,11.5704467 26,13.5005727 C26,15.4295533 24.4298102,17 22.5,17 Z" id="Stroke-23" stroke="#91CA62" stroke-width="0.5"></path>
            <path d="M32.5,12.2909507 C31.8334424,12.2909507 31.2905759,12.8339061 31.2905759,13.5005727 C31.2905759,14.1672394 31.8334424,14.7090493 32.5,14.7090493 C33.1665576,14.7090493 33.7094241,14.1672394 33.7094241,13.5005727 C33.7094241,12.8339061 33.1665576,12.2909507 32.5,12.2909507 M32.5,17 C30.5701898,17 29,15.4295533 29,13.5005727 C29,11.5704467 30.5701898,10 32.5,10 C34.4298102,10 36,11.5704467 36,13.5005727 C36,15.4295533 34.4298102,17 32.5,17" id="Fill-25" fill="#91CA62"></path>
            <path d="M32.5,12.2909507 C31.8334424,12.2909507 31.2905759,12.8339061 31.2905759,13.5005727 C31.2905759,14.1672394 31.8334424,14.7090493 32.5,14.7090493 C33.1665576,14.7090493 33.7094241,14.1672394 33.7094241,13.5005727 C33.7094241,12.8339061 33.1665576,12.2909507 32.5,12.2909507 Z M32.5,17 C30.5701898,17 29,15.4295533 29,13.5005727 C29,11.5704467 30.5701898,10 32.5,10 C34.4298102,10 36,11.5704467 36,13.5005727 C36,15.4295533 34.4298102,17 32.5,17 Z" id="Stroke-27" stroke="#91CA62" stroke-width="0.5"></path>
            <path d="M96.4971709,99 C97.1761599,99 97.7284044,98.450841 97.7284044,97.7756456 L97.7284044,97.0498105 C99.6465485,96.5096541 101,94.7608979 101,92.7510661 C101,90.2821014 98.9811392,88.2745203 96.5005658,88.2745203 C95.3768389,88.2745203 94.4635986,87.3663824 94.4635986,86.2489339 C94.4635986,85.1326108 95.3768389,84.2244729 96.5005658,84.2244729 C97.5688419,84.2244729 98.4617126,85.053838 98.5330064,86.1116442 C98.5748774,86.7643331 99.1044889,87.2561005 99.7653716,87.2561005 L99.8423237,87.2538498 C100.170502,87.2324686 100.47152,87.0861763 100.687665,86.8397299 C100.904942,86.5932836 101.011316,86.2781924 100.989815,85.9518479 C100.863071,84.0534234 99.5447001,82.4588368 97.7284044,81.9479389 L97.7284044,81.2254797 C97.7284044,80.549159 97.1761599,80 96.4971709,80 C95.8170502,80 95.2648057,80.549159 95.2648057,81.2254797 L95.2648057,81.9513149 C93.3511882,82.4937219 92,84.2413528 92,86.2489339 C92,88.7167733 94.0188608,90.7243544 96.5005658,90.7243544 C97.6231611,90.7243544 98.537533,91.6336176 98.537533,92.7510661 C98.537533,93.8673892 97.6231611,94.7755271 96.5005658,94.7755271 C95.3768389,94.7755271 94.4635986,93.8673892 94.4635986,92.7510661 C94.4635986,92.0747453 93.9113542,91.5255864 93.2312335,91.5255864 C92.5522444,91.5255864 92,92.0747453 92,92.7510661 C92,94.7575219 93.3511882,96.5062781 95.2648057,97.0486851 L95.2648057,97.7756456 C95.2648057,98.450841 95.8170502,99 96.4971709,99" id="Fill-29" fill="#91CA62"></path>
            <path d="M96.4971709,99 C97.1761599,99 97.7284044,98.450841 97.7284044,97.7756456 L97.7284044,97.0498105 C99.6465485,96.5096541 101,94.7608979 101,92.7510661 C101,90.2821014 98.9811392,88.2745203 96.5005658,88.2745203 C95.3768389,88.2745203 94.4635986,87.3663824 94.4635986,86.2489339 C94.4635986,85.1326108 95.3768389,84.2244729 96.5005658,84.2244729 C97.5688419,84.2244729 98.4617126,85.053838 98.5330064,86.1116442 C98.5748774,86.7643331 99.1044889,87.2561005 99.7653716,87.2561005 L99.8423237,87.2538498 C100.170502,87.2324686 100.47152,87.0861763 100.687665,86.8397299 C100.904942,86.5932836 101.011316,86.2781924 100.989815,85.9518479 C100.863071,84.0534234 99.5447001,82.4588368 97.7284044,81.9479389 L97.7284044,81.2254797 C97.7284044,80.549159 97.1761599,80 96.4971709,80 C95.8170502,80 95.2648057,80.549159 95.2648057,81.2254797 L95.2648057,81.9513149 C93.3511882,82.4937219 92,84.2413528 92,86.2489339 C92,88.7167733 94.0188608,90.7243544 96.5005658,90.7243544 C97.6231611,90.7243544 98.537533,91.6336176 98.537533,92.7510661 C98.537533,93.8673892 97.6231611,94.7755271 96.5005658,94.7755271 C95.3768389,94.7755271 94.4635986,93.8673892 94.4635986,92.7510661 C94.4635986,92.0747453 93.9113542,91.5255864 93.2312335,91.5255864 C92.5522444,91.5255864 92,92.0747453 92,92.7510661 C92,94.7575219 93.3511882,96.5062781 95.2648057,97.0486851 L95.2648057,97.7756456 C95.2648057,98.450841 95.8170502,99 96.4971709,99 Z" id="Stroke-31" stroke="#91CA62" stroke-width="0.5"></path>
            <path d="M103.494938,23.3573923 L5.39493814,23.3573923 C4.77352577,23.3573923 4.2712268,22.8567171 4.2712268,22.2398137 C4.2712268,21.6229104 4.77352577,21.1222352 5.39493814,21.1222352 L103.494938,21.1222352 C104.116351,21.1222352 104.618649,21.6229104 104.618649,22.2398137 C104.618649,22.8567171 104.116351,23.3573923 103.494938,23.3573923 M69.0958866,96 L5.39493814,96 C2.42047423,96 0,93.5938533 0,90.6356228 L0,5.36437718 C0,2.40614668 2.42047423,0 5.39493814,0 L103.607309,0 C106.580649,0 109,2.40614668 109,5.36437718 L109,67.2894063 C109,67.9063097 108.497701,68.4069849 107.876289,68.4069849 C107.256,68.4069849 106.752577,67.9063097 106.752577,67.2894063 L106.752577,5.36437718 C106.752577,3.63883586 105.34232,2.23515716 103.607309,2.23515716 L5.39493814,2.23515716 C3.65992784,2.23515716 2.24742268,3.63883586 2.24742268,5.36437718 L2.24742268,90.6356228 C2.24742268,92.3611641 3.65992784,93.7648428 5.39493814,93.7648428 L69.0958866,93.7648428 C69.7161753,93.7648428 70.2195979,94.265518 70.2195979,94.8824214 C70.2195979,95.4993248 69.7161753,96 69.0958866,96" id="Fill-33" fill="#91CA62"></path>
            <path d="M103.494938,23.3573923 L5.39493814,23.3573923 C4.77352577,23.3573923 4.2712268,22.8567171 4.2712268,22.2398137 C4.2712268,21.6229104 4.77352577,21.1222352 5.39493814,21.1222352 L103.494938,21.1222352 C104.116351,21.1222352 104.618649,21.6229104 104.618649,22.2398137 C104.618649,22.8567171 104.116351,23.3573923 103.494938,23.3573923 Z M69.0958866,96 L5.39493814,96 C2.42047423,96 0,93.5938533 0,90.6356228 L0,5.36437718 C0,2.40614668 2.42047423,0 5.39493814,0 L103.607309,0 C106.580649,0 109,2.40614668 109,5.36437718 L109,67.2894063 C109,67.9063097 108.497701,68.4069849 107.876289,68.4069849 C107.256,68.4069849 106.752577,67.9063097 106.752577,67.2894063 L106.752577,5.36437718 C106.752577,3.63883586 105.34232,2.23515716 103.607309,2.23515716 L5.39493814,2.23515716 C3.65992784,2.23515716 2.24742268,3.63883586 2.24742268,5.36437718 L2.24742268,90.6356228 C2.24742268,92.3611641 3.65992784,93.7648428 5.39493814,93.7648428 L69.0958866,93.7648428 C69.7161753,93.7648428 70.2195979,94.265518 70.2195979,94.8824214 C70.2195979,95.4993248 69.7161753,96 69.0958866,96 Z" id="Stroke-35" stroke="#91CA62" stroke-width="0.5"></path>
            <path d="M95.9994406,75.2373999 C86.7564695,75.2373999 79.2374658,82.757301 79.2374658,92 C79.2374658,101.242699 86.7564695,108.7626 95.9994406,108.7626 C105.24353,108.7626 112.762534,101.242699 112.762534,92 C112.762534,82.757301 105.24353,75.2373999 95.9994406,75.2373999 M95.9994406,111 C85.5236259,111 77,102.476625 77,92 C77,81.5233749 85.5236259,73 95.9994406,73 C106.476374,73 115,81.5233749 115,92 C115,102.476625 106.476374,111 95.9994406,111" id="Fill-37" fill="#91CA62"></path>
            <path d="M95.9994406,75.2373999 C86.7564695,75.2373999 79.2374658,82.757301 79.2374658,92 C79.2374658,101.242699 86.7564695,108.7626 95.9994406,108.7626 C105.24353,108.7626 112.762534,101.242699 112.762534,92 C112.762534,82.757301 105.24353,75.2373999 95.9994406,75.2373999 Z M95.9994406,111 C85.5236259,111 77,102.476625 77,92 C77,81.5233749 85.5236259,73 95.9994406,73 C106.476374,73 115,81.5233749 115,92 C115,102.476625 106.476374,111 95.9994406,111 Z" id="Stroke-39" stroke="#91CA62" stroke-width="0.5"></path>
        </g>
    </g>
</svg>