<?xml version="1.0" encoding="UTF-8"?>
<svg width="120px" height="120px" viewBox="0 0 120 120" version="1.1" xmlns="http://www.w3.org/2000/svg" xmlns:xlink="http://www.w3.org/1999/xlink">
    <!-- Generator: Sketch 58 (84663) - https://sketch.com -->
    <title>Icon / square</title>
    <desc>Created with Sketch.</desc>
    <g id="Icon-/-square" stroke="none" stroke-width="1" fill="none" fill-rule="evenodd" stroke-linecap="round">
        <g id="Group-17" transform="translate(11.000000, 17.000000)" stroke="#3B8525" stroke-width="3">
            <path d="M84.8799,31.2899 L84.8799,8.5699 C84.8739,3.8389 81.0409,0.0059 76.3099,-0.0001 L8.5699,-0.0001 C3.8389,0.0059 0.0049,3.8389 -0.0001,8.5699 L-0.0001,58.0099 C0.0049,62.7409 3.8389,66.5749 8.5699,66.5809 L52.6999,66.5809" id="Stroke-1"></path>
            <polyline id="Stroke-3" points="19.5898 49.5399 19.5798 49.5399 11.9998 49.5399"></polyline>
            <path d="M38,49.5399 L30.45,49.5399" id="Stroke-5"></path>
            <path d="M56,49.5399 L48.44,49.5399" id="Stroke-7"></path>
            <path d="M26.2715,30.3211 L10.9815,30.3211" id="Stroke-9"></path>
            <path d="M71,54.64 C71.006,50.163 74.633,46.536 79.11,46.53 L79.5,46.53 C83.961,46.557 87.564,50.179 87.57,54.64 L71,54.64 Z M94,57.94 L93.79,57.94 C93.37,57.86 92.96,57.81 92.54,57.73 L92.54,52.64 C92.54,45.41 86.69,39.542 79.46,39.52 L79.07,39.52 C71.844,39.548 66,45.413 66,52.64 L66,57.71 C65.58,57.78 65.17,57.84 64.75,57.92 L64.54,57.92 C62.227,58.344 60.545,60.358 60.54,62.71 L60.54,78.97 C60.545,81.322 62.227,83.336 64.54,83.76 L65.98,84.03 C74.782,85.694 83.818,85.694 92.62,84.03 L94,83.76 C96.313,83.336 97.995,81.322 98,78.97 L98,62.73 C97.995,60.378 96.313,58.365 94,57.94 Z" id="Stroke-11"></path>
            <path d="M81,70.6898 C82.16,69.7098 82.306,67.9748 81.325,66.8148 C80.727,66.1058 79.811,65.7478 78.89,65.8598 C77.663,66.0138 76.685,66.9598 76.49,68.1798 C76.341,69.1268 76.697,70.0828 77.43,70.6998 L76.43,73.5008 L76.05,74.5598 C75.921,74.9268 76.107,75.3298 76.47,75.4698 C78.229,76.1578 80.182,76.1578 81.94,75.4698 C82.303,75.3298 82.488,74.9268 82.36,74.5598 L81,70.6898 Z" id="Stroke-13"></path>
            <path d="M8.9141,16.9261 L75.8671,16.9261" id="Stroke-15"></path>
        </g>
    </g>
</svg>