<svg id="bd944196-2611-430c-ae95-43a528c91598" data-name="Layer 1" xmlns="http://www.w3.org/2000/svg" xmlns:xlink="http://www.w3.org/1999/xlink" viewBox="0 0 432 432"><defs><clipPath id="fa5b92cb-bf56-4607-81b0-1f7f287f919a"><rect x="621.5" y="169.5" width="93" height="93" fill="none"/></clipPath><clipPath id="f77ca530-ad4b-46b0-add1-bd48daaf9034"><polygon points="207.92 169.91 207.92 259.92 207.92 259.92 223.92 259.92 223.92 169.91 207.92 169.91" fill="none" clip-rule="evenodd"/></clipPath><clipPath id="e1744ffe-dd08-4c04-a609-a763e1ff3a73"><rect x="-84.08" y="-1590.08" width="1440" height="5151" fill="none"/></clipPath><clipPath id="e4fe2dce-7ed5-4803-92cc-a295bc99dfe0"><path d="M178.28,262.08a66,66,0,0,1-8.62-.75c-7.29-1.72-11.6-5.77-11.6-11.38V199.49c0-7.56,7.83-12.3,20.25-12.3s20.25,4.74,20.25,12.3v26.89H174.4V249.7c0,3.33,1.53,3.58,3.91,3.58s3.92-.25,3.92-3.58V232.53h16.33V250c0,5.62-4.32,9.68-11.64,11.39h0A76.85,76.85,0,0,1,178.28,262.08Zm3.95-62.33c0-3.34-1.53-3.59-3.92-3.59s-3.91.25-3.91,3.59V217.8h7.83Z" fill="none" clip-rule="evenodd"/></clipPath><clipPath id="a21d34a5-3121-4bbd-970a-bfe69f9d1402"><rect x="233.58" y="187.19" width="40.5" height="74.89" fill="none"/></clipPath><clipPath id="a1886a70-11f1-4559-84f6-be83d805006f"><rect x="232.92" y="186.92" width="42" height="76" fill="none"/></clipPath><clipPath id="a8a18ceb-9103-49ac-a66d-840ad081868e"><path d="M254.38,262.08a90.87,90.87,0,0,1-9.1-.73h-.07c-7.31-1.72-11.63-5.78-11.63-11.39V199.49c0-7.56,7.83-12.3,20.25-12.3s20.25,4.74,20.25,12.3V250c0,5.62-4.33,9.69-11.67,11.4h0A64.94,64.94,0,0,1,254.38,262.08Zm3.37-62.33c0-3.34-1.54-3.59-3.92-3.59s-3.91.25-3.91,3.59V249.7c0,3.32,1.53,3.58,3.91,3.58s3.92-.25,3.92-3.58Z" fill="none" clip-rule="evenodd"/></clipPath><clipPath id="a506ee39-c8ef-4ba7-883b-e703e80882ff"><rect x="157.92" y="170.06" width="116.16" height="92.02" fill="none"/></clipPath><clipPath id="b09966eb-ca73-41d0-8e91-588a20e3da90"><rect x="157.92" y="169.92" width="41" height="13" fill="none"/></clipPath><clipPath id="f98cfa77-c494-4890-84f2-5b577b208741"><rect x="157.92" y="170.06" width="40.72" height="11.9" fill="none"/></clipPath><clipPath id="a5bd2d3d-44b6-4e2d-a305-7d29630453fb"><rect x="157.92" y="169.92" width="117" height="93" fill="none"/></clipPath></defs><title>partner-logo</title><g clip-path="url(#f77ca530-ad4b-46b0-add1-bd48daaf9034)"><g clip-path="url(#e1744ffe-dd08-4c04-a609-a763e1ff3a73)"><rect x="202.92" y="164.92" width="26" height="100" fill="#070404"/></g></g><g clip-path="url(#e4fe2dce-7ed5-4803-92cc-a295bc99dfe0)"><g clip-path="url(#e1744ffe-dd08-4c04-a609-a763e1ff3a73)"><rect x="153.06" y="182.19" width="50.5" height="84.89" fill="#070404"/></g></g><g clip-path="url(#a21d34a5-3121-4bbd-970a-bfe69f9d1402)"><g clip-path="url(#e1744ffe-dd08-4c04-a609-a763e1ff3a73)"><g style="isolation:isolate"><g clip-path="url(#a1886a70-11f1-4559-84f6-be83d805006f)"><g clip-path="url(#a8a18ceb-9103-49ac-a66d-840ad081868e)"><g clip-path="url(#a1886a70-11f1-4559-84f6-be83d805006f)"><rect x="228.58" y="182.19" width="50.5" height="84.89" fill="#070404"/></g></g></g></g></g></g><g clip-path="url(#a506ee39-c8ef-4ba7-883b-e703e80882ff)"><g clip-path="url(#e1744ffe-dd08-4c04-a609-a763e1ff3a73)"><g style="isolation:isolate"><g clip-path="url(#b09966eb-ca73-41d0-8e91-588a20e3da90)"><g clip-path="url(#f98cfa77-c494-4890-84f2-5b577b208741)"><g clip-path="url(#a5bd2d3d-44b6-4e2d-a305-7d29630453fb)"><rect x="152.92" y="165.06" width="50.72" height="21.9" fill="#878a90"/></g></g></g></g></g></g></svg>