<svg id="a42b1d8b-0533-4597-a883-487ad34e4338" data-name="Layer 1" xmlns="http://www.w3.org/2000/svg" xmlns:xlink="http://www.w3.org/1999/xlink" viewBox="0 0 432 432"><defs><clipPath id="e771a98a-12a8-4951-96a5-f101d0181fbe"><rect x="169.5" y="169.5" width="93" height="93" fill="none"/></clipPath><clipPath id="f94cfe90-a0f0-4cf3-8553-4169cb5c7f44"><rect x="-488.5" y="-1591.5" width="1440" height="5151" fill="none"/></clipPath><clipPath id="a2ab5cfe-28a5-4f1f-b0d8-9387d656757a"><path d="M228.68,225.86a2.81,2.81,0,0,1-2.81,2.82H206.14a2.81,2.81,0,0,1-2.81-2.82V206.14a2.82,2.82,0,0,1,2.81-2.82h19.73a2.82,2.82,0,0,1,2.81,2.82Zm16.91,14.81a4.94,4.94,0,0,1-4.93,4.92H191.34a4.94,4.94,0,0,1-4.93-4.92V191.34a5,5,0,0,1,4.93-4.93h49.32a5,5,0,0,1,4.93,4.93ZM247,169.5H185A15.55,15.55,0,0,0,169.5,185v62A15.55,15.55,0,0,0,185,262.5h62A15.55,15.55,0,0,0,262.5,247V185A15.55,15.55,0,0,0,247,169.5Z" fill="none" clip-rule="evenodd"/></clipPath><clipPath id="ba43f2a8-cd3f-46c0-93f4-fcf8e2bb19f1"><polygon points="-244.08 169.91 -244.08 259.92 -244.08 259.92 -228.08 259.92 -228.08 169.91 -244.08 169.91" fill="none" clip-rule="evenodd"/></clipPath><clipPath id="ae4aa550-d9cb-4c9f-8a60-064bd458ffe5"><path d="M-273.72,262.08a66,66,0,0,1-8.62-.75c-7.29-1.72-11.6-5.77-11.6-11.38V199.49c0-7.56,7.83-12.3,20.25-12.3s20.25,4.74,20.25,12.3v26.89H-277.6V249.7c0,3.33,1.53,3.58,3.91,3.58s3.92-.25,3.92-3.58V232.53h16.33V250c0,5.62-4.32,9.68-11.64,11.39h0A76.85,76.85,0,0,1-273.72,262.08Zm4-62.33c0-3.34-1.53-3.59-3.92-3.59s-3.91.25-3.91,3.59V217.8h7.83Z" fill="none" clip-rule="evenodd"/></clipPath><clipPath id="be620135-d38c-40ac-893a-414a57e96095"><rect x="-218.42" y="187.19" width="40.5" height="74.89" fill="none"/></clipPath><clipPath id="f58d0789-afeb-400c-9db2-f0895d7a0f01"><rect x="-294.08" y="170.06" width="116.16" height="92.02" fill="none"/></clipPath></defs><title>partner-logo</title><g clip-path="url(#e771a98a-12a8-4951-96a5-f101d0181fbe)"><g clip-path="url(#f94cfe90-a0f0-4cf3-8553-4169cb5c7f44)"><g style="isolation:isolate"><g clip-path="url(#e771a98a-12a8-4951-96a5-f101d0181fbe)"><g clip-path="url(#a2ab5cfe-28a5-4f1f-b0d8-9387d656757a)"><g clip-path="url(#e771a98a-12a8-4951-96a5-f101d0181fbe)"><rect x="164.5" y="164.5" width="103" height="103"/></g></g></g></g></g></g></svg>